/* XPM */
static char *boom[] = {
/* columns rows colors chars-per-pixel */
"64 50 186 2 ",
"   c None",
".  c #030303",
"X  c #0B0404",
"o  c #060806",
"O  c #0B0905",
"+  c #140505",
"@  c #140A06",
"#  c #120A09",
"$  c #190909",
"%  c #1B0505",
"&  c #0F1204",
"*  c #131105",
"=  c #1D1C05",
"-  c #240707",
";  c #200F07",
":  c #230408",
">  c #2E0608",
",  c #220A09",
"<  c #2C0A0A",
"1  c #35050A",
"2  c #340B0B",
"3  c #3A0C0C",
"4  c #2E100F",
"5  c #211F08",
"6  c #35100F",
"7  c #3A110E",
"8  c #311C0A",
"9  c #2B1511",
"0  c #341612",
"q  c #3B1311",
"w  c #351915",
"e  c #282607",
"r  c #2F2C07",
"t  c #272209",
"y  c #2D220B",
"u  c #292808",
"i  c #242307",
"p  c #392F0A",
"a  c #352B09",
"s  c #363509",
"d  c #3E3C0A",
"f  c #3A320A",
"g  c #3E3910",
"h  c #40070C",
"j  c #440D0D",
"k  c #4D0C0E",
"l  c #530C0F",
"z  c #580D0F",
"x  c #4A1C0D",
"c  c #53160F",
"v  c #5D0D10",
"b  c #431312",
"n  c #4B1413",
"m  c #551313",
"M  c #5B1413",
"N  c #5D1E11",
"B  c #5E1C19",
"V  c #511D1A",
"C  c #630D11",
"Z  c #680F11",
"A  c #730E13",
"S  c #641212",
"D  c #6C1213",
"F  c #691817",
"G  c #621D1B",
"H  c #731415",
"J  c #7C1315",
"K  c #7E1815",
"L  c #7D1718",
"P  c #741A1A",
"I  c #791A19",
"U  c #731D14",
"Y  c #43280D",
"T  c #52280E",
"R  c #46350C",
"E  c #52380E",
"W  c #57231C",
"Q  c #5F3B10",
"!  c #622F10",
"~  c #762F14",
"^  c #7F2916",
"/  c #792215",
"(  c #7E3515",
")  c #45430A",
"_  c #4A4809",
"`  c #5F4D0E",
"'  c #55480C",
"]  c #54520C",
"[  c #5B560C",
"{  c #5E5912",
"}  c #62450F",
"|  c #69560F",
" . c #625D0D",
".. c #6B4010",
"X. c #7D4314",
"o. c #7E4C14",
"O. c #7F5713",
"+. c #755911",
"@. c #6A660F",
"#. c #6D6A0E",
"$. c #64620D",
"%. c #726D0E",
"&. c #7A6D0F",
"*. c #7C6711",
"=. c #736E12",
"-. c #7A6910",
";. c #841415",
":. c #8C1417",
">. c #831819",
",. c #8F191A",
"<. c #811C16",
"1. c #911417",
"2. c #911618",
"3. c #9C1719",
"4. c #941A19",
"5. c #9C1A1A",
"6. c #A01719",
"7. c #A9171B",
"8. c #A3191B",
"9. c #AD1A1C",
"0. c #BC171E",
"q. c #B41A1C",
"w. c #BB1B1D",
"e. c #B3171D",
"r. c #8A2617",
"t. c #822C16",
"y. c #8E2918",
"u. c #892C16",
"i. c #912418",
"p. c #9A211A",
"a. c #853417",
"s. c #C31B1E",
"d. c #C91C1F",
"f. c #CE1B20",
"g. c #D41D21",
"h. c #DC1E21",
"j. c #E21E22",
"k. c #EC1F23",
"l. c #E62023",
"z. c #ED2023",
"x. c #F02024",
"c. c #814914",
"v. c #825D13",
"b. c #807A0F",
"n. c #846B13",
"m. c #8A6D13",
"M. c #837C11",
"N. c #8E7813",
"B. c #897412",
"V. c #907913",
"C. c #86800F",
"Z. c #8F890F",
"A. c #8B840F",
"S. c #868011",
"D. c #8A8312",
"F. c #8C8811",
"G. c #948412",
"H. c #938C12",
"J. c #9A8C12",
"K. c #969011",
"L. c #999212",
"P. c #9F9812",
"I. c #A09412",
"U. c #A49B12",
"Y. c #ACA413",
"T. c #AFA812",
"R. c #B1A614",
"E. c #B3AB13",
"W. c #BBB313",
"Q. c #BFB813",
"!. c #C1B714",
"~. c #C3BA14",
"^. c #CBC314",
"/. c #D1C715",
"(. c #D3CA14",
"). c #D8CF14",
"_. c #DCD314",
"`. c #E1D714",
"'. c #E5DC14",
"]. c #E9DE15",
"[. c #E7E014",
"{. c #EDE314",
"}. c #F0E614",
"|. c #F6EB14",
" X c #F9EE14",
".X c #FCF114",
/* pixels */
"                                                                                                                                ",
"                                                                                                                                ",
"                                                                                                                                ",
"                                                                                                                                ",
"                                                                                                                                ",
"                                                                q                                                               ",
"                                                                M M                       0                                     ",
"                                                                k w.2                   H 6                                     ",
"                                      w                         j l.e.< o           $ :.:.                                      ",
"                                      n b                     o S z.z.s.z @ o o X 3 8.h.k                                       ",
"                                        L b                   X 6.x.z.z.l.e.:.;.9.h.x.s.,                                       ",
"                  9                     F w.z X o         o o z l.z.z.z.z.z.x.z.x.k.x.8.X                                       ",
"                    m m                   e.l.3.j + X o o % Z h.z.z.z.x.z.z.z.z.k.k.z.:.o                                       ",
"                      J H                 D z.z.k.w.3.:.5.f.z.k.d.8.p.8.s.z.z.z.x.z.x.2.o                                       ",
"                      0 5.5.b             3 h.k.z.z.z.z.z.z.h.r.m.Y.~.R.m.r.g.f.8.e.s.e.+ o                                     ",
"                        2 w.f.H <         < h.x.k.k.z.z.z.l.^ T.|. X X X|.W.a.K H.U.B.4.C o X                                   ",
"                          j g.z.s.J b < 3 :.e.i.a.y.9.k.k.5.U. X.X|.{.|.|..XR.Y /..X[...0.C o o                                 ",
"                          O D z.z.z.l.g.d.t.G.^._.^.I.( w.X.[. X).#.d  ./..X}.@./..X.XZ.1.j.3.1 i U.~.H.g                       ",
"                            + e.x.z.z.l.t.W. X X X X.X^.Q B. X{.] X k l ' `.|.A._..X|.).! j.h.~ E. X.X{.d < B                   ",
"                            * T i.f.x.e.G. X|.}._._.|..XY.K..XQ.@ :.k.k.1.W.|.A.`.|.|..X&.:.^ W. X|..XW.*                       ",
"                          { E._.Q.X.d.u.(. X'. .= u Z.|.^.L..XY.> h.z.z.9.U.|.A.[..X|..XW.R !..X|.|. X%.o                       ",
"                        =._..X.X.X~./ a.[. Xb.X C :.c Y._.S.|.^.x j.z.x.i.~.'.b.|.[./.|.]./..X|.|. X`.r o                       ",
"                      M.{.{.L.C.'.{.' E ].}._ z z.z.d.O.{.M._.|.-.7.j.e.v.{._.N.|.).%.{. X X X/.}. XU.X                         ",
"                    { {..XW.@ : Z.|. .t /. X .1.z.z.k.c.{.Y.P..X`.V.o.B._..XU.b..XW.5 /. X XP.b.|.|.[ o                         ",
"                    y L.|.{.-.S J. X_.U.&.{.U.J k.z.g.v.|.W.s (..X.X{.|..X_.f A..XL.X J..XP.= U. X/.=                           ",
"            V G P 4.8.W P..X`.P.{.{.]..XE.L.{.N.4.w./ W..XH.+ ` ). X X X_.] o U..X#.1 O.P.* 5 ). XM.o                           ",
"                  3 z v 8 Y..X.X~._ s W.}.M.'.}.R.G.~. X|.] k 2.R Z.W.L.s X 7 E.{.) H U & o ] }.].f o                           ",
"                      o o = E..XE.; C +. XZ.A.}..X X X XW.* 1.z.3.1 $ X 1 3.3.p ) @ 3.e.j J P..XY.O                             ",
"                        O o i !. XN.J m. XZ.O %.(.|.|.^.s < g.z.z.h.w.w.g.z.j.J z z s.z.h.4. .T._ o                             ",
"                          o o p /.].H.`.}.] j S y ] ] = + 8.z.z.z.z.z.z.z.z.k.z.z.z.z.z.x.g.v , O                               ",
"                          o o A } ). X}.b.O 1.z.7.v h z e.z.z.z.z.z.z.z.z.k.z.z.g.e.8.8.9.s.g.f.;.,                             ",
"                          o > g.8.| ).%.X z h.z.x.z.k.z.z.z.z.z.z.z.z.z.z.z.d.S , + X # $ < b D 5.H 4                           ",
"                          + 8.z.z.1.a o S h.z.k.z.z.k.k.z.z.x.z.z.z.z.z.z.s.> o                                                 ",
"                        , :.z.z.z.k.J A j.z.z.z.z.k.z.h.8.:.9.h.z.z.z.z.l.z o                                                   ",
"                      q 5.z.l.w.3.;.A ;.w.z.z.z.z.z.w.j X o X j q.z.z.z.d.:                                                     ",
"                    F 9.w.L j , o o o o + ;.z.z.x.w.<           < q.z.z.e.@                                                     ",
"                  P >.S                 o + e.x.h.c               b f.x.8.#                                                     ",
"                W                         o J k.2.                  D l.3.                                                      ",
"                                            S g.n                     e.8.                                                      ",
"                                            D 8.                      P 4.                                                      ",
"                                            D L                         P                                                       ",
"                                            M                                                                                   ",
"                                            w                                                                                   ",
"                                                                                                                                ",
"                                                                                                                                ",
"                                                                                                                                ",
"                                                                                                                                ",
"                                                                                                                                ",
"                                                                                                                                ",
"                                                                                                                                "
};
