/* XPM */
static char *EA[] = {
/* columns rows colors chars-per-pixel */
"64 64 57 1 ",
"  c #B637B8",
". c #B73AB9",
"X c #B83DBA",
"o c #BA42BC",
"O c #BC4BBE",
"+ c #BD51BF",
"@ c #BE4FC0",
"# c #BE51C0",
"$ c #C056C2",
"% c #C25CC4",
"& c #C462C6",
"* c #C46BC5",
"= c #C666C8",
"- c #C76AC8",
"; c #C86DCA",
": c #C771C8",
"> c #CA74CB",
", c #CC7BCE",
"< c #CE7DD0",
"1 c #CD81CE",
"2 c #CD89CE",
"3 c #CE95CF",
"4 c #CF83D0",
"5 c #CF8DD0",
"6 c #D185D2",
"7 c #D28CD3",
"8 c #D492D5",
"9 c #D59BD6",
"0 c #D79BD8",
"q c #D89DD9",
"w c #D6A1D7",
"e c #D6A9D7",
"r c #D7A0D8",
"t c #DAA4DB",
"y c #DCABDD",
"u c #DCB3DD",
"i c #DEBBDE",
"p c #DFB3E0",
"a c #E0B4E1",
"s c #E2BCE3",
"d c #E5C4E6",
"f c #E5C9E5",
"g c #E7CBE8",
"h c #E8CDE9",
"j c #E7D0E7",
"k c #EAD3EA",
"l c #ECDCEC",
"z c #EDE4ED",
"x c #EEECEE",
"c c #EFF0EF",
"v c #EFE4F0",
"b c #F0E5F1",
"n c #F1ECF2",
"m c #F4F4F4",
"M c #F7F8F7",
"N c #F8F7F8",
"B c #F9F9F9",
/* pixels */
"XXXXXXXXXXXXXXXXXXXXXXXXXXXXXXXXXXXXXXXXXXXXXXXXXXXXXXXXXXXXXXXX",
"XXXXXXXXXXXXXXXXXXXXXXXXXXXXXXXXXXXXXXXXXXXXXXXXXXXXXXXXXXXXXXXX",
"XXXXXXXXXXXXXXXXXXXXXXXXXXXXXXXXXXXXXXXXXXXXXXXXXXXXXXXXXXXXXXXX",
"XXXXXXXXXXXXXXXXXXXXXXXXXXXXXXXXXXXXXXXXXXXXXXXXXXXXXXXXXXXXXXXX",
"XXXXXXXXXXXXXXXXXXXXXXXXXXXXXXXXXXXXXXXXXXXXXXXXXXXXXXXXXXXXXXXX",
"XXXXXXXXXXXXXXXXXXXXXXXXXXXXXXXXXXXXXXXXXXXXXXXXXXXXXXXXXXXXXXXX",
"XXXXXXXXXXXXXXXXXXXXXXXXXXXXXXXXXXXXXXXXXXXXXXXXXXXXXXXXXXXXXXXX",
"XXXXXXXXXXXXXXXXXXXXXXXXXXXXXXXXXXXXXXXXXXXXXXXXXXXXXXXXXXXXXXXX",
"XXXXXXXXXXXXXXXXXXXXXXXX....X.XXXXXXXXXXXXXXXXXXXXXXXXXXXXXXXXXX",
"XXXXXXXXXXXXXXXXXXXXXXXXX.@6y>oXXXXXXXXXXXXXXXXXXXXXXXXXXXXXXXXX",
"XXXXXXXXXXXXXXXXXXX.XXXX.@aNBN7.XXXXXXXXXXXXXXXXXXXXXXXXXXXXXXXX",
"XXXXXXXXXXXXXXXX.....XXXXtNNNNkOXXXXXXXXXXXXXXXXXXXXXXXXXXXXXXXX",
"XXXXXXXXXXXX=tat,==%$o@o=nNNmMb%..........X....XXXXXXXXXXXXXXXXX",
"XXXXXXXXXXX=lmBmmnnvbkkgkNNBBmn7>>=%&&&%&&%&&;;oXXXXXXXXXXXXXXXX",
"XXXXXXXXXXXemmmMmmmmmNNmmNNNBmmnmnnnnnbnbnzznnnd%XXXXXXXXXoXXXXX",
"XXXXXXXXXXofmmmmmnmmmmmNNmNNmmmmmmNNNNNNNBBNmmmByXXXXXXXXXXXXXXX",
"XXXXXXXXXXoummmxmxcccmxmNNNNmmmmcmmmmmmmmxmmmmmmk@ .XXXXXXXXXXXX",
"XXXXXXXXXX.1xmmmmmmmmmcmmBNNmmmmmmnmmmmmmmmmmmmml$..XXXXXXXXXXXX",
"XXXXXXXXXXXo3lzxmmmmmmmMmNBBmmmmmmmmmmmmmmmmNmBBs@.XXXXXXXXXXXXX",
"XXXXXXXXXXXXX#%:299weuikNBBBmlzxxxmmnmmnmmxmmMml-.XXXXXXXXXXXXXX",
"XXXXXXXXXXXXX......Xoo.7NBBBb-%---,146461114482%..XXXXXXXXXXXXXX",
"XXXXXXXXXXXXXXXXXXXXoX.8MBNBl#........ ... .....XXXXXXXXXXXXXXXX",
"XXXXXXXXXXXX.XXXXXXXXX.9BmNBh@.XXXXX.XX.XXXXXXXXXXXXXXXXXXXXXXXX",
"XXXXXXXXXX.X$o.......XXrBmmNfo..............XXXXXXXXXXXXXXXXXXXX",
"XXXXXXXXXXOyls>$=&=%%##yMmmBk%$&==-;<<,,688;oXXXXXXXXXXXXXXXXXXX",
"XXXXXXXXXotmmmnbxbnvvzlnmmmmnbbnnnnnmNmmmmNztoXXXXXXXXXXXXXXXXXX",
"XXXXXXXXX$vmmBMMBBmmmmxmmmmmmBmmBmNNNNNmmNmmn>XXXXXXXXXXXXXXXXXX",
"XXXXXXXX.>NmmBmMmmmmmmmmBmBmmmmmmmmmmmmmmNNNM9.XXXXXXXXXXXXXXXXX",
"XXXXXXXX.7mmmmmmmmmmmmmmmmmmmmmmmmmmmmmmmNmNBa..XXXXXXXXXXXXXXXX",
"XXXXXXXX.8mmmnmmmmmmmmMmmmBBNmmmmmcmmNmmmNmNNso.XXXXXXXXXXXXXXXX",
"XXXXXXXX.tmmmxmcxmMmmmmMmmmmmNnmxxxxxnbzmNNNNd@.XXXXXXXXXXXXXXXX",
"XXXXXXXXXsBmxclyrwtw8888gMBmmn8,>>>>;=&,bNNNBaXXXXXXXXXXXXXXXXXX",
"XXXXXXXXosMmmMpX%qyyyttyhmmNNb7>786%X. <mNBBm8XXXXXXXXXXXXXXXXXX",
"XXXXXXXXXsMBmmd-lmNmmmMMmmNNNNNmmmmva-XaMBNmx>.XXXXXXXXXXXXXXXXX",
"XXXXXXXXXtMmmmkaBBNNNNmmmmNNBBmmmmmmBltbBBmmgOXXXXXXXXXXXXXXXXXX",
"XXXXXXXX.8BmmmblmNmmmmmmmNNNBBmmmmmmmmmNmBmm7.XXXXXXXXXXXXXXXXXX",
"XXXXXXXX.2cmmmNnmmmmmmccmmmmNmmmcmmmmmmmmNNn&.XXXXXXXXXXXXXXXXXX",
"XXXXXXXX.:mmmmmmmmmnccmmmmmmBBmmmmcmnmmcmmmsoXXXXXXXXXXXXXXXXXXX",
"XXXXXXXXXOkmmccmcxzzzzzzxNNNNBcmxxMmmmmmNmN9.XXXXXXXXXXXXXXXXXXX",
"XXXXXXXXXoumcmmmmn4#%&%=9nmmNmt61,pmmmmmNmm,.XXXXXXXXXXXXXXXXXXX",
"XXXXXXXXX.,ccmmmmmq;>>;;7mNNNmt7qdlxmcmmMMn%.XXXXXXXXXXXXXXXXXXX",
"XXXXXXXXXXOimmmmmmmmmnnnnNNNNNNNMMmmcmmmmBgoXXXXXXXXXXXXXXXXXXXX",
"XXXXXXXXXXX+icMMmBBNNNNNmBNNNNNmmmmmmmnmnf-.XXXXXXXXXXXXXXXXXXXX",
"XXXXXXXXXXX.O2zcmmmmmmmNmNNNNNmmmmxmxmmx1@XXXXXXXoXXXXXXXXXXXXXX",
"XXXXXXXXXXXX.oimmmmmmmmmmNmmNBmmmmmmmcmgO.XXXXXXXXXXXXXXXXXXXXXX",
"XXXXXXXXXXXXX.8MmmmmmmmmmNmmNBmmmcxcmxj-.XXXXXXXXXXXXXXXXXXXXXXX",
"oXXXXXXXXXXXXX+ixcmmccnmmmNmBBnzxlgp8;#XXXXXXXXXXXXXXXXXXXXXXXXX",
"XXXXXXXXXXXXXXX+18878771tnBBBmgsat6;%oX..XXXXXXXXXXXXXXXXXXXXXXX",
"XXXXXXXXXXXXXXXX.... o%8kBBBMmmmmmmxzgy9-ooX.XXXXXXX.XXXXXXXXXXX",
"XXXXXXXXXXXXXXXXX..$8fnBBmNmmmmmmmmmmMmmnks9=OXX....  XXXXXXXXXX",
"XXXXXXXXXXXXXXX. o,kNNBNBBmmmmmmmnmmmmmmmmmmngq1-%%%%$..XXXXXXXX",
"XXXXXXXXXXXXX.o%6snmNmmNmmmnxmmmmmnmcmmmmmmmMmMmnbbnbh>.XXXXXXXX",
"XXXXXXXXXXXXO6snmmmmnNNNmmmmmmcmmmmmmcccnmmmmmmmBMmmmml%XXXXXXXX",
"XXXXXXXXXX.;gmBNmmmmmmmNmmNmxzxmxxmmmmMmmccxccmmmmmmmmm4.XXXXXXX",
"XXXXXXXXXXOhBmNmmmmmBBBNblmmcxz84113ilzmmMmmmxcmmmmmmmm5.XXXXXXX",
"XXXXXXXXX.;nmmNNmmNNBmg7%8mmcmn% ...o+#3ugzmMmmmmmmmmmm>.XXXXXXX",
"XXXXXXXXX.1mmmmNmmBBl6@  1mmmmm>.XXXX...XO#1ulxxmmcMMma@.XXXXXXX",
"XXXXXXXXX.&zmBBmBnkq%X.X.&xMmmn>.XXXXXXXXXoXo+*:9yeyy7@XXXXXXXXX",
"XXXXXXXXXXoemBMnt*OX.XXXXoiMmBb$.XXXXXXXXXXX.. ..XXXX.XXXXXXXXXX",
"XXXXXXXXXX.O9st;o XXXXXXXX*lmz9XXXXXXXXXXXXX.oXXXXXXXXXXXXXXXXXX",
"XXXXXXXXXXXXXoX.XXXXXXXXXXX*8>oXXXXXXXXXXXXXXXXXXXXXXXXXXXXXXXXX",
"XXXXXXXXXXXXXXXXXXXXXXXXXXX .XXXXXXXXXXXXXXXXXXXXXXXXXXXXXXXXXXX",
"XXXXXXXXXXXXXXXXXXXXXXXXXXXXXXXXXXXXXXXXXXXXXXXXXXXXXXXXXXXXXXXX",
"XXXXXXXXXXXXXXXXXXXXXXXXXXXXXXXXXXXXXXXXXXXXXXXXXXXXXXXXXXXXXXXX"
};
