/* XPM */
static char *NO[] = {
/* columns rows colors chars-per-pixel */
"64 64 87 1 ",
"  c #EC171F",
". c #EC1C24",
"X c #EC232B",
"o c #ED282F",
"O c #EC2C34",
"+ c #ED3037",
"@ c #ED333B",
"# c #ED383F",
"$ c #ED3C43",
"% c #EC4047",
"& c #E74349",
"* c #ED444B",
"= c #ED494F",
"- c #ED4C52",
"; c #EE5157",
": c #EE555B",
"> c #EE595E",
", c #F05157",
"< c #F0565C",
"1 c #F0595E",
"2 c #EC5C62",
"3 c #F05D63",
"4 c #EE6066",
"5 c #ED666B",
"6 c #F16267",
"7 c #F0656A",
"8 c #F0696E",
"9 c #EF6F74",
"0 c #F06C71",
"q c #EE7074",
"w c #ED7378",
"e c #ED797D",
"r c #F07377",
"t c #F1757A",
"y c #F17A7F",
"u c #ED7D81",
"i c #F17E82",
"p c #EC8185",
"a c #ED868A",
"s c #F08186",
"d c #F08488",
"f c #F18A8E",
"g c #EF8F93",
"h c #F18F92",
"j c #EE9195",
"k c #EE9699",
"l c #EB9A9D",
"z c #F19296",
"x c #F4999C",
"c c #EE9EA1",
"v c #F19EA1",
"b c #EBA3A6",
"n c #F3A1A4",
"m c #F2A5A8",
"M c #F3ABAD",
"N c #F2AEB1",
"B c #ECB2B4",
"V c #EFB6B9",
"C c #ECB8BA",
"Z c #F3B1B3",
"A c #F2B7B9",
"S c #F3BABC",
"D c #F2BFC1",
"F c #EBC1C3",
"G c #EBC8C9",
"H c #F3C2C4",
"J c #F4C7C9",
"K c #F2CBCC",
"L c #EECFD0",
"P c #F2CFD0",
"I c #EEDDDD",
"U c #F3D4D5",
"Y c #F8D1D2",
"T c #F5D7D8",
"R c #F4DBDC",
"E c #F4DFE0",
"W c #EFE4E5",
"Q c #EFEDED",
"! c #F3E3E3",
"~ c #F5E7E8",
"^ c #F5ECED",
"/ c #EEF1F1",
"( c #F4F4F4",
") c #FAF6F6",
"_ c #F5F8F7",
"` c #F6F9F9",
"' c #F9F9F9",
/* pixels */
".........X.............................X........................",
".............................................X..................",
"................................................................",
"....................................................X...........",
"................................................................",
".........................X................................X.....",
"................................................................",
"...................X............................................",
"................................................................",
"................................................................",
"........X.......................................................",
"................................................................",
"........................................................X.......",
"................................................................",
"....X............................X....o38O......................",
".....................................Xv))D$......X..............",
".....................X:0#............7(`''h.....................",
".....................u^)Y<..........XH)'''SX...........X........",
"....................$R_''ZX.........3^(((_HX....................",
"..X.................i'''_UO........XN')((_z.....................",
"....................Z'')_U@........=~('((U%.....................",
"...................@R''_(NX........x_`'((f......................",
"...................<(((((9 .......@R''__R$......................",
"............X#@oXX.f)'((!$........8)(''_c.......................",
"...........$ZRTHSSMT(''_Ho........m'')(~-................X......",
"..........XN_(_'_(_(()_(g........@R('''AX.......................",
"..........$!(((((('((''_n........1(('''p .......................",
".X........=I//((((('_''_T+.......t))((~*........................",
"..........OG((/(((((''((!*.......v`(''HX........................",
"...........e^((_(('_')((U@......XA((('H%.. .....................",
"............5cBGP!((('((j.......OU(((((Tny,@....................",
"..............XOOm_(''~aO.......%W((((((')^RMt,*O.....X.........",
"............... XD_('_m........ #I(/((((((((_`~~J6..............",
"................@R''')i ........+T(((/Q(((((_((((R*.............",
"................<^'''(<.........$!/(((((/(((((((((s.............",
"................z'())!$.........-~(Q//((__/((//(((h.............",
"................S'''_JO.........-^'_'^FLW/_/(('()(9 ............",
"...............OY'')'j...... ...*~_)'(2O=elG^/(_(SO.......X.....",
".............. @U'((_y . ..o6fSny~_`)(>. ..O:uglf#..............",
".............OwM^((('dXO#3zJ(`'_^((((^:.........................",
"X............j(_(((((RKUR('''((()((((^> ........................",
"............&W_((((((`_'__((`(`((('(((8.........................",
"............4Q(((((((`((((((((()(((((_z.........................",
"............-!(Q(Q(((((((((((('_!R(((_Z.........................",
"............oC_((((((((((/(Q/(~G2x_(('~6..... ...........X......",
".............&CTWQ/((((((Q/!Ji*O.p_((('R8O...-w&X...............",
"..............X$-2wjVJFDMgy*O....:^((((`^Kg4pW(T8...............",
"....................XXXX.. ......XV((((((((((^((U@..............",
".X................................2^((((((((((((^5..............",
"..................................Xj((/((((((Q((/p..............",
"...................................Ob/_(((((Q((((9 .............",
".........X..........................ouI/((((/(/(U#..............",
"......................................$4bRQ//((J:...............",
".........................................&4wuu5O................",
"..................X............X................................",
"................................................................",
"................................................................",
"................................................................",
"................................................................",
"..........X...............................................X.....",
"......X...............................................X.........",
"..............................X.................................",
"................................................................",
"...................X........................X..................."
};
