/* XPM */
static char *SO[] = {
/* columns rows colors chars-per-pixel */
"64 64 74 1 ",
"  c #19ADEF",
". c #00A7F3",
"X c #00A8F3",
"o c #0DACF3",
"O c #13AEF3",
"+ c #19AFF2",
"@ c #1CB1F3",
"# c #24B3F3",
"$ c #2AB5F3",
"% c #31B6F2",
"& c #33B8F4",
"* c #3BBAF3",
"= c #44BAEF",
"- c #55BFEF",
"; c #59BDEA",
": c #45BEF3",
"> c #4ABFF3",
", c #5CC2EF",
"< c #4FC2F6",
"1 c #53C2F4",
"2 c #5CC4F3",
"3 c #6BC6EE",
"4 c #75C9EE",
"5 c #62C6F3",
"6 c #68C7F1",
"7 c #63C8F5",
"8 c #6CCAF4",
"9 c #74CCF4",
"0 c #7BCFF4",
"q c #83CCED",
"w c #8BCEEC",
"e c #93CFEA",
"r c #8FD0EE",
"t c #9FD6EF",
"y c #84CFF0",
"u c #84D1F4",
"i c #8CD4F4",
"p c #93D6F3",
"a c #99D6F2",
"s c #9CD9F4",
"d c #ACD7EB",
"f c #BCDEEE",
"g c #A0D7F0",
"h c #A3DAF3",
"j c #ABDDF3",
"k c #B3DFF2",
"l c #B4E0F3",
"z c #BDE2F3",
"x c #C2E1EE",
"c c #C9E1EC",
"v c #D3E5ED",
"b c #DDE9EE",
"n c #C5E5F4",
"m c #CBE6F2",
"M c #CCE9F6",
"N c #CFEBF8",
"B c #D1E6F0",
"V c #D3EAF4",
"C c #DCECF3",
"Z c #DAEFF8",
"A c #E7E7E7",
"S c #E3EBEF",
"D c #EDEEEE",
"F c #F2F0EF",
"G c #E3EEF3",
"H c #EBEFF0",
"J c #E6F1F5",
"K c #EDF2F4",
"L c #F4F4F4",
"P c #F8F6F5",
"I c #FAF8F7",
"U c #F6F7F8",
"Y c #F7F8F8",
"T c #F9F8F8",
/* pixels */
"XXXXXXXXXXXXXXXXXXXXXXXXXXXXXXXXXXXXXXXXXXXXXXXXXXXXXXXXXXXXXXXX",
"XXXXXXXXXXXXXXXXXXXXXXXXXXXXXXXXXXXXXXXXXXXXXXXXXXXXXXXXXXXXXXXX",
"XXXXXXXXXXXXXXXXXXXXXXXXXXXXXXXXXXXXXXXXXXXXXXXXXXXXXXXXXXXXXXXX",
"XXXXXXXXXXXXXXXXXXXXXXXXXXXXXXXXXXXXXXXXXXXXXXXXXXXXXXXXXXXXXXXX",
"XXXXXXXXXXXXXXXXXXXXXXXXXXXXXXXXXXXXXXXXXXXXXXXXXXXXXXXXXXXXXXXX",
"XXXXXXXXXXXXXXXXXXXXXXXXXXXXXXXXXXXXXXXXXXXXXXXXXXXXXXXXXXXXXXXX",
"XXXXXXXXXXXXXXXXXXXXXXXXXXXXXXXXXXXXXXXXXXXXXXXXXXXXXXXXXXXXXXXX",
"XXXXXXXXXXXXXXXXXXXXXXXXXXXXXO@X.XXXXXXXXXXXXXXXXXXXXXXXXXXXXXXX",
"XXXXXXXXX.XXXXXXXXXXXXXXX...2MN9oXXXXXXXXXXXXXXXXXXXXXXXXXXXXXXX",
"XXXXXXXXXXXXXXXXXXXXXXXXX..%ZIPU8XXXXXXXXXXXXXXXXXXXXXXXXXXXXXXX",
"XXXXXXXXXXXXXXXXXXXXXXXXXX.8PLLLN@XXXXXXXXXXXXXXXXXXXXXXXXXXXXXX",
"XXXXXXXXXXXXXXXXXXXXXXXX.X.0PLULJ:XXXXXXXXXXXXXXXXXXXXXXXXXXXXXX",
"XX.XXXXXXXXXX..XX..XXXXXXoX2KUUUYi......XX....XXXXXXXXXXXXXXXXXX",
"XXXXXXXXXXXXXo5hs8889ipjjjhsHPLPUN*$@o..X.....XXXXXXXXXXXXXXXXXX",
"XXXXXXXXXXXXX6KPPPPPPPPPPPPPKPULLLGGZnjaa07:&@OX.XXXXXXXXXXXXXXX",
"XXXXXXXXXXXX+mPPPUUUPPLUPLPPULPPLLLUYLPPPLLLJZns0<@XXXXXXXXXXXXX",
"XXXXXXXXXXX.%CFFLLLLLLLLFLFLULUUULFLLUULLULPPLLLYLM9oXXXXXXXXXXX",
"XXXXXXXXXX.X+xLFLLKLLFLLLLLLLPLUULFLFFKFHFLLLLLLLLLPuXXXXXXXXXXX",
"XXXXXXXXXXXX.wLLLLLPLFLLLLLUUUULULLLLLLFLHKLFFHLLLLLZ#.XXXXXXXXX",
"XXXXXXXXXXXX.+evDHHHHSCcBvvHUUPPLLHHLLLYPLLFLLLLLFLFJ&.XXXXXXXXX",
"XXXXXXXXXXXXXXo#:<>:*%$@@O#9LUPYLnnCFHLLLUUPLLLUULLPC#.XXXXXXXXX",
"XXXXXXXXXXXXXX.X........o#:iKLPULJKLUPLYPLULLLLLLUYYhoXXXXXXXXXX",
"XXXXXXXXXXXXX.XX....o+:8hCLPLUPUUUUUUULLPLYYPLLLLLLLM:..XXXXXXXX",
"XXXXXXXXXXX.o1i2O*90sMLYYUUUUPHLLLLLHLLLLLLULLLFLLLLLn@.XXXXXXXX",
"XXXXX.XXXXXX2HPKnCPPYLLPPLLLLLLLLLLLLFFLUUUUULLLHLLUUL2.XXXXXXXX",
"XXXXXXXXXX.OzPPPTTULLULHLLULLLLLULLLLLFLLUUYLLLLLLLLUPp.XXXXXXXX",
"XXXXXXXXXX.$CPULHLLLLLLFDLUYLFFFFFHHGVmzKTYYPGjcDLPLUPj.XXXXXXXX",
"XXXXXXXXXXX+mPULHLLLLFFLLLLPLMnji92:%#O2LTYLLho+-mPPTIj.XXXXXXXX",
"XXXXXXXXXXXXrPLLDLFHLLLLLLHLU8O.......#MITYPL5..OnUUYPi.XXXXXXXX",
"XXXXXXXXXXX.:KUUDADHGGLPLLLLLN#....o&2zLYYULV$..1LPUUL9.XXXXXXXX",
"XXXXXXXXXXX.*KPLLPs>%*tfHLLLLLi.+>*9CHLLUUUY0...uYLUUL>.XXXXXXXX",
"XXXXXXXXXXX.+CPPLPi....oyFLLLLG9kLJHFLLLLLUK5O.ojPPLLZ#XXXXXXXXX",
"XXXXXXX.XXXXolPUPPs.XXXo8KLLLLLLYYLLLLLYLLLLJM9$nUULPao..XXXXXXX",
"XXXXXXXXXXXX.pTPUYjoXXoaKLPLPULLLYLLLLYLLLLUFLLVKTLUP9..XXXXXXXX",
"XXXXXXXXXXXX.iTUPYloXX1LPULLKPLFLLYYLLLLLFLLLLKYYYUUU<.XXXXXXXXX",
"XXXXXXXXXXXX.0PLPPnOXXyFLPLLHLLDLLLLYLLLLKLFLLFLLLUYJ&.XXXXXXXXX",
"XXXXXXXXXXXX.8PLLPV+X.0LPLLLLLLDKYYLLLLLLLLLKLULLYYPB+..XXXXXXXX",
"XXXXXXXXXXXX.2PLLPG%..:SLLLHDHDDLLLLLLLLLFHFLLLLLLLYnO..XXXXXXXX",
"XXXXXXXXXXXX.*JLLLL>..X4bLHLLLKLLPLYLLLLLPPFLYYYYYLYMO..XXXXXXXX",
"XXXXXXXXXXXX.$JPLLL<.X.*lJLPPLLLLLYUULULLLKLKPLYLYLInO..XXXXXXXX",
"XXXXXXXXXXXX.@VPLLP8..$VLLPLPULPLPYLLLFLLLLKLLffPPIPmO.XXXXXXXXX",
"XXXXXXXXXXXX.OcPULLs..uILLPLLLLLLKLYYLFKLFLLFLsyPLPPzoXXXXXXXXXX",
"XXXXXXXXXXXXXXhPULPZ+.jLLLLLLLLLLLPLYYLKFLLFLLakPLLPjXXXXXXXXX.X",
"XXXXXXXXXXXXX.0LLUUJ*.pLLHLLLKFFFLYLYIKSKLLLYJ8MULLPhXXXXXXXXXXX",
"XXXXXXXXXXXXX.7YUTTK*.>HPLFFFDbnnHYYYYp*,xbCv9&GPPPL9..XXXXXXXXX",
"XXXXXXXXXXXXXXpIYTTK*.o4mCBju1$O#ZLFFL9..+##++pFKPPK>...XXXXXXXX",
"XXXXXXXXXXXXXXsTPPTG$...+$@XXX..+VPFFLV#.....2HFLPUL>.XXXXXXXXXX",
"XXXXXXXXXXXXXXsPHLPM+...XXXXXXXXOnLLKFL2.....gPLKKUL>.XXXXXXXXXX",
"XXXXXXXXXXXXXXaPDLLG&.XXXXXXXXXXXgLFLLF6.XXXXgFLLLFH>.XXXXXXXXXX",
"XXXXXXXXXXXXXXaLLLFK1.XXXXXXXXXXX,LLLPK:.XXX.3LLLLLJ*.XXXXXXXXXX",
"XXXXXXXXXXXX..qLDDLD1.XXXXXXXXXXXOwAFLao.XXX. dLFLPkoXXXXXXXXXXX",
"XXXXXXXXXXXXX.=DLLLG$.XXXXXXXXXX..o;q6+.XXXXXX+rCCk%.XXXXXXXXXXX",
"XXXXXXXXXXXXX.oqDFFyXXXXXXXXXXXXXXX...XXXXXXXX.X+$oXXXXXXXXXXXXX",
"XXX.XXXXXXXXXX.o5q,oXXXXXXXXXXXXX.XXXXXXXXXXXXXX...XXXXXXXXXXXXX",
"XXXXXXXXXXXXXX.....XXXXXXXXXXXXXXXXXXXXXXXXXXXXXXXXXXXXXXXXXXXXX",
"XXXXXXXXXXXXX...XXXXXXXXXXXXXXXXXXXXXXXXXXXXXXXXXXXXXXXXXXXXXXXX",
"XXXXXXXXXXXXXXXXXXXXXXXXXXXXXXXXXXXXXXXXXXXXXXXXXXXXXXXXXXXXXXXX",
"XXXXXXXXXXXXXXXXXXXXXXXXXXXXXXXXXXXXXXXXXXXXXXXXXXXXXXXXXXXXXXXX",
"XXXXXXXXXXXXXXXXXXXXXXXXXXXXXXXXXXXXXXXXXXXXXXXXXXXXXXXXXXXXXXXX",
"XXXXXXXXXXXXXXXXXXXXXXXXXXXXXXXXXXXXXXXXXXXXXXXXXXX.XXXXXXXXXXXX",
"XXXXXXXXXXXXXXXXXXXXXXXX.XXXXXXXXXXXXXXXXXXXXXXXXXXXXXXXXXXXXXXX",
"XXXXXXXXXXX.XXXXXXXXXXXXXXXXXXXXXXXXXXXXXXXXXXXXXXXXXXXXXXXXXXXX",
"XXXXXXXXXXXXXXXXXXXXXXXXXXXXXXXXXXXXXXXXXXXXXXXXXXXXXXXXXXXXXXXX",
"XXXXXXXXXXXXXXXXXXXXXXXXXXXXXXXXXXXXXXXXXXXXXXXXXXXXXXXXXXXXXXXX"
};
