/* XPM */
static char *test[] = {
/* columns rows colors chars-per-pixel */
"64 64 150 2 ",
"   c #040404",
".  c #080707",
"X  c #0D0807",
"o  c #070708",
"O  c #080708",
"+  c #070808",
"@  c #0C0A0A",
"#  c #130504",
"$  c #1C0504",
"%  c #160807",
"&  c #1D0807",
"*  c #110E0E",
"=  c #1A0B0A",
"-  c #16100F",
";  c #1C100F",
":  c #100F10",
">  c #0F1010",
",  c #141212",
"<  c #1A1514",
"1  c #1D1817",
"2  c #1C1A1A",
"3  c #220503",
"4  c #2D0504",
"5  c #2A0907",
"6  c #230C0B",
"7  c #2B0D0B",
"8  c #360403",
"9  c #3B0503",
"0  c #360907",
"q  c #3B0906",
"w  c #340D0A",
"e  c #3B0D0B",
"r  c #20100F",
"t  c #34100E",
"y  c #3C100D",
"u  c #231413",
"i  c #2B1413",
"p  c #221A1A",
"a  c #2A1918",
"s  c #331311",
"d  c #3B1513",
"f  c #331918",
"g  c #232323",
"h  c #2C2C2C",
"j  c #333333",
"k  c #3B3B3B",
"l  c #440603",
"z  c #480402",
"x  c #460B07",
"c  c #4A0B06",
"v  c #450D0A",
"b  c #4A0D0A",
"n  c #510502",
"m  c #5E0503",
"M  c #570A06",
"N  c #5A0905",
"B  c #540C0B",
"V  c #5B0C0A",
"C  c #43110D",
"Z  c #4D110E",
"A  c #55110D",
"S  c #5C110C",
"D  c #421412",
"F  c #4B1312",
"G  c #591410",
"H  c #650605",
"J  c #6C0603",
"K  c #620906",
"L  c #6C0A05",
"P  c #630D09",
"I  c #6B0D08",
"U  c #730603",
"Y  c #7D0301",
"T  c #730A05",
"R  c #7D0B04",
"E  c #740F08",
"W  c #63120B",
"Q  c #6F120B",
"!  c #7D1008",
"~  c #413F3F",
"^  c #424242",
"/  c #4B4B4B",
"(  c #574948",
")  c #504F50",
"_  c #525252",
"`  c #5C5C5C",
"'  c #635150",
"]  c #626263",
"[  c #6C6C6C",
"{  c #747474",
"}  c #7A7A7A",
"|  c #830301",
" . c #8B0400",
".. c #840C04",
"X. c #8B0B03",
"o. c #940500",
"O. c #9B0601",
"+. c #940A02",
"@. c #9D0901",
"#. c #851006",
"$. c #891207",
"%. c #80130A",
"&. c #A00701",
"*. c #A30901",
"=. c #AB0B01",
"-. c #B30C01",
";. c #BB0E00",
":. c #A61004",
">. c #A6140D",
",. c #AC1108",
"<. c #B61102",
"1. c #BC1002",
"2. c #A21812",
"3. c #AA1E17",
"4. c #C20F00",
"5. c #C51000",
"6. c #CA1100",
"7. c #BE524D",
"8. c #BE5651",
"9. c #BD5D58",
"0. c #826D6C",
"q. c #C46763",
"w. c #848484",
"e. c #8C8C8C",
"r. c #928282",
"t. c #968A89",
"y. c #9C8989",
"u. c #959595",
"i. c #9F9494",
"p. c #9C9C9C",
"a. c #ACA09F",
"s. c #ACACAC",
"d. c #B4B4B4",
"f. c #BCBCBC",
"g. c #D29896",
"h. c #D69C9A",
"j. c #D1A09E",
"k. c #D8A6A4",
"l. c #D8ADAC",
"z. c #E4B8B6",
"x. c #E4BDBB",
"c. c #C1C0C1",
"v. c #CCCCCC",
"b. c #D3D3D3",
"n. c #DADADA",
"m. c #E4E4E4",
"M. c #ECECEC",
"N. c #F0EFEF",
"B. c #F3F3F3",
"V. c #FCFCFC",
/* pixels */
"                                                                                                                                ",
"                                                                  o                                                             ",
"                                                    o     . o @ @   @         o                                                 ",
"                                                @   o @ @   @ @ @ . . @ @ @   @   o                                             ",
"                                          o o o   @ o @ @ @ * O O * : O @ @ @ @ O O O o                                         ",
"                                        o o o o @ @ @ = O @ O : : O * O @ @ @ @ * O O O O O                                     ",
"                                        o o o @ @ @ O * : : : O : : > : * * @ @ O O * O O O O                                   ",
"                                    @ o @ @ @ = @ * : : : : u w e v w 6 : : * * * , O O O O O O                                 ",
"                                o o o @ @ @ @ : : : , : < S ..X. .| ....D : : : : * * = O O O O . .   . $ .                     ",
"                                o o @ @ > @ = , , : < : s <.=.o. .X.@.4.$., < , , , : O : O * O . . . 4 Y 3 .                   ",
"                                o @ @ @ * : : , , , < < p ! 4.4.;.1.;.*.D 1 < < < , : : O , O O . $ U Y o.Y J #                 ",
"                              O o @ = : : : , , , p < < p p Q =.=.=.=.F 1 1 1 1 < < , < , , , * * 4 ..-.-.;.| 3                 ",
"                          . O O @ : = : , , , 1 p 1 1 p p 2 a ! O.o. .d p p 1 1 1 i ! %.v , * O 4 R *.;.1.-.o.R $               ",
"                        O O O O @ = > : , , F S i p p p f F P Y |  .| Y E V D a 1 d =.o.+.V < O * q X.;.-.=.| 4                 ",
"                        O O O * : : : : i E | -.G 2 f S Y |  . . . .o. . . .| U F d O.*.Y  .P , O 6 Y +.*. .U #                 ",
"                      O O O O * : : , u ! | X.=.G F U  . .o.O.O.*.*.O.*.O.O.o. .| Y  .*.@.Y ..v , * 6 0 | 4 $                   ",
"                    + + . . @ - , , , W X.| *.O.| |  .o.O.*.=.=.=.-.-.=.=.*.O.O.o. .| o.*.*.*.E - O > * 7 % +                   ",
"                      . . . @ @ - , t +.X.*.O. .| o.o.*.=.-.-.*.=.;.;.;.-. . .O.*.o. .|  .Y $.B , * * O @ O +                   ",
"                    . . O @ - - , , d ,.=.@. . . .O.*.=.-.;.*.Y | =.6.6.O.Y Y  .=.*.O. .| d p : , * - O O O .                   ",
"                    + . - O @ - , , 1 d F V |  .O.*.-.;.4.4.o.Y Y *.6.6.O.Y Y  .-.=.*.o. .U u < , , , - O O . +                 ",
"                    + . @ @ @ - : < 1 1 p I  .o.*.-.;.4.6.6.=. . .-.6.6.;.O.o.-.4.-.=.*.o. .B 1 < , @ - O O O +                 ",
"                    + . @ @ , - < 1 1 1 d | o.O.=.-.4.6.6.6.6.;.4.6.6.6.6.6.6.6.6.4.-.=.O. .U i , , - * > O O .                 ",
"                  + @ @ @ - @ , < < 1 p P  .o.*.O.o.;.6.6.6.6.6.6.6.6.6.6.6.6.6.6.;.-.=.*.o.| b < , y ..C O O O                 ",
"                + + + @ @ @ - - < < 1 a U o.O.=.o.| ;.6.6.6.6.6.6.6.6.6.4.6.6.6.;.o.| | o.O. .H < s ,.4.+.= O O                 ",
"                    + O @ @ , A S p 1 d | o.O.-.-.;.6.6.-.*.-.6.6.6.6.=. .=.6.6.o.Y | | | O. .Y b +.4.*.X.0 + +                 ",
"                    O O - @ y ,.4.I a F  .o.*.-.4.6.6.;. .Y | -.6.6.6.O.Y o.6.4. .| Y Y | o.o.| o.=.;.+. .x + .                 ",
"                  O O O @ @ V Y ;.-.o.| | o.=.-.4.6.6.-.Y | Y *.6.6.6.;.O.;.6.6.O.Y | Y | *.o.| o.=.;.+.| c + +                 ",
"                  O O O O - L Y =.;.*. . .o.O.O.;.6.6.4.o.| | ;.6.6.6.6.6.6.6.6.;.o. . .*.*.o.| o.=.;.@.| c +                   ",
"                    O O O , L | *.-.*.o.| o. .| =.6.6.6.4.-.;.6.6.6.6.6.4.4.6.6.6.6.4.;.=.*.o.| V I -.;.X.0 + +                 ",
"                    O O * O W | =.;.@.| | o.O.O.;.6.6.6.6.6.6.6.5.6.6.6.=.o.5.6.6.6.6.*.O.*. .Y u : V -.R * + +                 ",
"                  o O O O O Z +.-.<.F s | o.O.=.;.6.6.6.6.6.6.4.o. .;.6.;.;.6.6.6.6.4.*.o.O. .J < , , 7 = O . +                 ",
"                      O O : r @.1.W 1 p J  .O.=.;.4.-.o.o.=.6.;.| | -.6.6.6.6.6.6.4.4.-.*.O. .M - , , O O . +                   ",
"                      + O O O 7 e < , 1 B | o.*.=.-.| Y Y | =.6.-.=.4.6.6.6.6.6.*.o.=.=.*. .| w : : : * O O O o                 ",
"                      + O O - * : : < < i Y  .O.=.O.| | | Y O.6.6.6.6.6.6.6.6.4. .Y o.=.O. .J < : : * @ O O O                   ",
"                    +   O O O * : : < < 1 B | o.*.O.| Y Y Y *.6.6.4.*.o.O.4.6.4.*.o.O.O. .| e < * * O * O O                     ",
"                      . q v * O * : : : < < J  .o.O. .| |  .;.6.5.+.Y Y | O.4.;.-.=.O.o.| | U ..K * @ @ O O                     ",
"                    . . U ..& & * * : : i D V |  .o.O.O.*.=.;.4.;.| | Y Y | =.-.=.O.o. . .o.=.*.@.= O O O O                     ",
"                  x U H |  .K L N * * , X.=.@.o.|  .o.O.*.=.-.-.=.| Y | | | *.*.o.o.|  .o.*. . .I O O O O                       ",
"                  z o.=.o.=.=.O.H * * = ! | O.*.o. . . .o.O.*.*.*.o.| Y | o.O.o. . .P U *.o.Y ..7 O O                           ",
"              . $ z o.-.-.4.4.*.N 6 = O y | Y o.*.| N Y  . .o.o.o.O. . . . . .| U b < U *.Y X.w O O O o                         ",
"              $  . .=.1.;.5.;.o.|  .q O O A X.| *.X.u 7 V U | |  . .|  .| | J b 6 , : P @.U 7 O .                               ",
"              # H J *.;.-.-.-.=.| K 7 O - O e ..*.X.; , , u t v H  . . .P 7 < : : : * * 6 * O . .                               ",
"                  9 *.4.-.;.@.o.n . . . O O O r Z t @ , , , , , v *.*.*...6 - , * : * O @   @                                   ",
"                  n  .o.=.=.O. .J . . . O O * O > @ @ - - O , r ..-.-.-.;.#.r O * O * O @ @   @                                 ",
"                  3 z 4 U | 8 9 4       O O O O O O - , O - = #.4.;.-.=.-.5.#.% O O .   @                                       ",
"                        L R #           O O O O O O O O O O * @.*.Y Y Y  .=.#.. @ @ @ .                                         ",
"                        . # .               . . O O O O O O O 6 M U R R K c % + . @                                             ",
"                                                . O O O O O + + . . . . . + +                                                   ",
"                                                                                                                                ",
"                                j ` / 2   O ~ ( ^ O 2 / h   O k ~ k ^ 2 k / ^ k O       O k / j O j ` ^ O                       ",
"                              { M.B.B.f.h r.j.9.l.p._ M.c., j m.d.c.m./ n.B.B.N.d.h     g n.V.d.] m.m.M.e.O                     ",
"                            j B.n./ [ ] [ h.>.=.3.x.} s.V./ w.V.] f.M._ m.n._ u.V.u.+   O ` B.f.s.V.{ b.M.h                     ",
"                            _ V.u.      0.7.-.1.=.q.t.` V.f.n.v.2 f.M.) m.v.  j B.c.[ s.} j N.f.[ M.m.B.B.k                     ",
"                            k B.b.^ _ ` [ h.,.=.2.z.{ , v.V.V.} O c.M.) m.b.^ e.V.p.[ d.} j N.f.2 [ u.M.m.g                     ",
"                            O w.B.B.B.f.j y.g.8.k.s.2   } V.m.h + f.M.) n.V.B.B.c.h   O   h M.d.` m.M.N.{                       ",
"                              O ~ [ ] g   , ( ( _ ,     2 _ ~   o ~ ) 2 / ` _ ^ ,         , _ k g ] [ k +                       ",
"                                                  2 < g < < , g , > > < > < g < , 2 2 +                                         ",
"                                                g ] ] [ e.e.{ [ e.} } [ [ { e.w.` { { >                                         ",
"                                                , / k / / / ^ / ^ _ / ~ / k / ^ ) ^ _ O                                         ",
"                                                                                                                                ",
"                                                                                                                                ",
"                                                                                                                                ",
"                                                                                                                                ",
"                                o                                                                                               "
};
