/* XPM */
static char *WE[] = {
/* columns rows colors chars-per-pixel */
"64 64 88 1 ",
"  c #06D03F",
". c #07D040",
"X c #0ED145",
"o c #10D147",
"O c #13D249",
"+ c #1AD34E",
"@ c #1DD451",
"# c #24D456",
"$ c #26D558",
"% c #2CD55C",
"& c #30D75F",
"* c #34D662",
"= c #3AD666",
"- c #37D864",
"; c #3DD769",
": c #3DD869",
"> c #45D56D",
", c #42D96D",
"< c #47DA70",
"1 c #4CDA74",
"2 c #50DA77",
"3 c #56D77A",
"4 c #5AD47D",
"5 c #54DC7B",
"6 c #59DC7E",
"7 c #5DDE81",
"8 c #68D787",
"9 c #64DE86",
"0 c #66DF88",
"q c #6CDC8C",
"w c #70DF8F",
"e c #74DF92",
"r c #78DC94",
"t c #64E087",
"y c #6DE18E",
"u c #73E192",
"i c #79E196",
"p c #7CE399",
"a c #80DF9B",
"s c #82E39D",
"d c #86E3A0",
"f c #8CE3A5",
"g c #8FE7A8",
"h c #90E0A7",
"j c #95E6AC",
"k c #99E4AE",
"l c #96E8AD",
"z c #9CE7B1",
"x c #9CE8B1",
"c c #A1E5B4",
"v c #A2E9B6",
"b c #ABE5BB",
"n c #A7EABA",
"m c #ACEABE",
"M c #AEECC0",
"N c #B1E7C0",
"B c #BAE4C5",
"V c #B4EAC3",
"C c #B9EAC7",
"Z c #BDEBCA",
"A c #C2E3CB",
"S c #C2ECCE",
"D c #C2F0CF",
"F c #C7E7D0",
"G c #C6EED1",
"H c #CAEED4",
"J c #CFEFD8",
"K c #D3EDDA",
"L c #D8EDDE",
"P c #CBF0D5",
"I c #CFF2D9",
"U c #D5F1DD",
"Y c #D8F0DF",
"T c #DEEEE2",
"R c #DCF2E2",
"E c #E2EFE6",
"W c #E6EEE9",
"Q c #EDEEED",
"! c #E1F2E6",
"~ c #E6F2E9",
"^ c #EBF3ED",
"/ c #F1EFF1",
"( c #EFF4F0",
") c #F4F4F4",
"_ c #F8F6F7",
"` c #F5F8F6",
"' c #F9F7F8",
"] c #F9F8F9",
/* pixels */
"XXXXXXXXXXXXXXoXoXXXXXXXXXXXoXXXXXXXXXXXXXoXXXXXXoXXXXXXXXXXXXoX",
"XXXXXXoXXXXXXXXXXXXXXXXXoXXXXXXXXXXXoXXXXXXXXXXXXXXXXXoXXXXXXXXX",
"XXXXXXXoXXoXXXXXXXXXXXXXXXXXXXXXXXXXXoXXXXXoXXoXXXXXXXXoXXoXXXXX",
"oXXXXXXXXXXXoXXXXXXXoXXXXoXXXXXXXoXXXXXXXXXXXXXXoXXXXXXXXXXXoXXX",
"XXXXXXXXXXoXXXXXXXXXXXXXXXXXXXXoXXXXXXXXXXXXXXXXXXXXXXXXXXoXXXXX",
"XXXXXXXXXXXXXXXXXXXoXXoXXXXXoXXXXXXoXXXXXXXXXXXXXXXXXXXXXXXXXXXX",
"XXXXXXXXXXXXXXXXXXXXXXXXXXoXXXXXXXXXXXoXXXXXXXXXXXXXXXXXXXXXXXXX",
"XXXoXoXXXXXXXXoXXXoXXXXXXXXXXXXXoXXXXXXXoXXXXXXXXXXoXoXXXXXXXXoX",
"XXXoXoXXXXXXXXXXXXXXXXXXXXXXXXXXXXXXXXXXXXXXXXXXXoXXXXXXXXXXXXXX",
"XXXXXXXXXooXXXXXXXXXXXXXXXXXXXXXXXXXXXXXXXXXXXXXXXXXXXXXXooXXXXX",
"XXXXXXXXXXXXXXXoXXXXXXXXXXXXXXXXXXXXXXXXXXXXXXXXXXXXXooXXXXXXXXo",
"XXXXXXXXXXXXXXXXXXXXXXXXXXXXXXXXXXoXXXXXXXXXXXXXXXXXXXXXXXXXXXXX",
"oXXXXXXXXXXXXXXXXXXXXXXXXXXXXXXXXXXXXXXXXXXXXXXXXXoXXXXXXXXXXXoX",
"XXXXXXXoXXXXXo%:$oXX.XXXXXXXXXXXXXXXXXXXXXXXXXXXXXXXXXXXoXXXXXXX",
"XXXXXXoXXXXXX2H^Kngt1:#+++@@@@@@@+@@+@@@@@@+OoXXXXXXXXXXXXXXXXXX",
"XoXXXXXXXXXX$S_)__'`^~IZSHPHGPHPPHPHPGHPPPHGVnjd62,&oXXXXXXoXXXX",
"XXXXXoXXXXXX1^__)))))'']]]]'']]]'']]]'_)''_)''')(((Up+XXXXXXXXXX",
"XXXXXXXXXXXX2W)/)))))))_))]]))]])`)]_)))))))))_)`))`(5XXXXXXXXXX",
"XoXXoXXXXXXX%K)//))/Q^)))))]__`))))_)))))))/))))))`)_gXXXXXXXXXX",
"XXXXXXXXXXXXoqW_)))))))))))]]`')))))])))))Q))/Q))))))kXXXXXXXXXX",
"XXXoXXXXXXXXXX3kFTW)/)/']]))]])_)))']]])/))))'))))_)'uXXXXXXXXXX",
"XXXXXXXXXXXXXXXX#*>9qhbNCH)))])~ZK))`])SBZSAJL!Q)'')S%XXoXXXXXXX",
"XXXXXXXXXXXXXXXXXXX XXOOou))]`_j@n']]]~:++++@$-5eskp%XXXXXXXXXXX",
"XXXXXXXoXXXXXXXXXXXXXXXXXj]))]`5:~]]])Y%XXXXXXXXXXXXXXXXXXXXoXXX",
"XXXXoXXXXXXXXXXXXXXXXXXXXj)))]R%d]]]`)cOXXXXXXXXXXXXXXXXXXXXXXXX",
"oXXXXXXXXX@yf6OXXXXXXXX Xm]]]]n#I]]]]!, .XXXXXXXXXXXXXXXXXXXXoXX",
"XXXXXXXXX+n))^x-$$$%%*1udR])`]Sx)``]`Y96565,$+XXXXXXXXXXXXXXXoXX",
"XoXXXXXXX5)))))!RRYRRR(_')`))])))))))))))()^YCMvd2+XXXXXXoXXXXXX",
"XXXXXXXoXs))))))]))]']))])))`)))_`]]]``])))_)__)](m&XXXXXXXXXXXX",
"XXXXoXXXXe)))/))`]))))))))))))))))))))))/))))_)^``)C@XXXXXXoXXXX",
"XXoXXXXXX=T))/)))])))))))))))))))))))))))Q)/)))))]``tXXXXXXXXXXo",
"XXXXXXXXXXqL/))))))))(/))))))))))))))))))))))/))]]]]xXXoXXXXXXXX",
"oXXXXXXXXXo&CQQ/)))))))())^)/^~^^QQ)))Q/)))))_)))_]]COXXXXXXXXoX",
"XXXXXXXXXXX 9)/)/)Lvjlpn)']]_N;C_)Q))KrwuuehAKL~_)]'I@XXXXXXXXXX",
"XXXXXXXoXXXX=E_))_ZOXXOm']]])8 d)))/)^l%  XX+#%k]_]]I@XXXXXXXXXX",
"XXXXXoXXXXXX+B))))Y%X 1(]]_)Y%.1W/))))_Ru#XXXXXp']]]P+XXXXXXXXXX",
"XXXoXXXXXXXXXq))))`6+#M]]]))gXXod))/)))))Hy%OXXl']]]VOXXXXXXoXXX",
"XXXXXXXXXXXXX,~)))`UDD)]]])R*XXX#B_)))`))/)Rm7@D')]]COXXXXoXXXXX",
"XXXXXoXXXXXXX+B))]`]]]]])__zOXXXX=J_))))))))]^lR_)_]xXXXXXXXXXXX",
"XXXXXXXXXoXXXXa_)))_])_]]_~,XoXXXX;S))Q))))))`)`_]))tXXXXXXXXXoX",
"XoXXXXXXXXXXXX=E]`)]]])]``hOXXXXXXX%kE))//))))))]]]~:XXXXXoXXXXX",
"XXXoXXXXXXXoXXOm])`)])_)]P$XXXXXXXXXo1B/')))))))`)]R%XXoXoXXXXXX",
"XXXXXXoXXXoXXXXf'_])_``]R<XXXXXXXXXXXX@8B))))]))]_]Y#XXXXXXXXXXo",
"XXXXXXXXXXXXXXXq)]])]_]R2 XXXXXXXXXXXXXX+3bK~Zv]]`]Y#XXXXXXXXXXX",
"oXXXXoXXXXXXXXX=!]`]])C, XXXXXXXXXXXXXXXXXX%=@w'))]Y#XXXXXXXXXXo",
"XXXXXXXXXXXXXXXon])_]Z%1t&XXXXXXXXXXXXXXXXXXXXu]]`)Y#XXXXXXXXXXX",
"XXXXXXXXXXXXXXXXc]_`]Vs~)Uu=##+XXXXXX.XXXXXXX u_`)]Y$XXXoXXXXXXX",
"XXXXoXXXXXXXXXooz]])_R^)/))RKISkrspi9996>,,%+%n]]]]U#XXXXXXoXXXX",
"XXXXXXXoXXXXXXXXd')/))))))_]__)__'')_)))^^^YPR)]]`]SOXXXXXXXXXXX",
"XXXoXXXXXXXXXXXXa//)))/)//))))_]))))_`)))`)))))`_))fXXXXXXXXXXXX",
"XXXXXXXXXXXoXXXXc_)/))/))^)/QQ))))^))))))`)))]))_)^7XXXXXXXXXXXX",
"XXXXXoXXXXXXXXXOb/Q//WAW))))))))))))))/)))))))_)))W1XXXXXXXXoXXX",
"XoXXXXXXXXXXXXXXr)Q))W33A/_'__'_)))))))))))))__]))^,XXXXXXoXXXXX",
"XXoXXXXXXXXXXXXX%F)/'H#X%3ekbBALWWWQ/^)Q))//)]))))U$XXXXXXXXXXXX",
"XXXXXXoXXXXXXXXXX>AWH2XXXXXXOO#-1112399qpsbAAHJ)/WiXXXXXXXXXXXXX",
"XXXXXXXXXXXXXXXXXX#=#XXXXXXXooXX  XXX XXXXO@++%uh3OXXXXXXXXXXXoX",
"oXXXXXXXXXoXXXXXXXXXXXXXXXXXXoXXXXXXXXoXXXXXXXXXXXXXXXXXXXXXXXXX",
"XXXXXXXXXoXXXXXXoXXXXXXXXXXoXXXXXXXXXXXXXXXXXXoXXXXXXXXXXooXXXXX",
"XXXXXXXoXXXXXXXoXXXXXXXXXXXXXXXXXXXXXXXXXXoXXXXXXXXXXXoXXXXXXXXo",
"XXXXXoXXXXXXXXXXXXXXXXXXXXXXXXXXXXXXoXXXXXXXXXXXXXXXXoXXXXXXXXXX",
"XXXoXXXXXXXXXXXoXXXXXXXXoXXXXXXXXXoXXXXXXXXXXXXXXXXXXXXXXXXXXXoX",
"XXXXXXXXXXXXXXXXXXXoXXoXXXXXXXoXXXXXXXXXXXXXoXXXXXXXXXXXoXXXXXXX",
"XXXXXoXXoXXXXXXXXXoXXXXXXXXXXXoXXXXXXXXXXoXXXXXXXXXXXoXXXXXXXXXX",
"XXXXXXXXXXXoXXXXXXXXXXXXXXoXXXXXXXXXXXoXXXXXXXXoXXXXXXXXXXXoXXXX"
};
