/* XPM */
static char *greystone[] = {
/* columns rows colors chars-per-pixel */
"64 64 22 1 ",
"  c gray12",
". c gray23",
"X c #3F3F3F",
"o c gray28",
"O c #4B4B4B",
"+ c gray31",
"@ c #535353",
"# c gray34",
"$ c #5F5F5F",
"% c #676767",
"& c gray42",
"* c gray45",
"= c #7B7B7B",
"- c #838383",
"; c gray56",
": c #9B9B9B",
"> c gray67",
", c #B7B7B7",
"< c gray78",
"1 c LightGray",
"2 c #DFDFDF",
"3 c #EFEFEF",
/* pixels */
" . . . . . . . . . . . . . . . . . . . . . . . . . . . . . . . .",
"###O#O#O##O1222121222121222 .->,1<11<1,<>-$ oooooooooo#O#O$O#O$O",
"######O##Oo21<1,111<11,11<; .-<,;>-;;;;->O. .&;;-;;;=&%oooOoooOo",
";;=;;;-; #O2<<,1,<<,<<,,1;$ .>1>;>;>->;>-#. .;122212,,>;-;;;-;;;",
"1111,>;- #o21>>:>;>>>>:>>=O .;,;;->>>>-;*O. .-22,<,1222121<111<1",
">>>>:>=* #o3,:>>>>:>;>->>&# .o>;>>-;:;>&##. .;1,>;>;>>:;;>;>->;:",
",:::>;=& Oo31>->;>;:::;;>;O .o=;->;>>->*... .-2,;>-:-;;>-;:;>:;:",
",>-,-:$# .o3<;:;>>:;=;;>;$$ .oo;>>:;;;>&... .;2>>-:=>:=;>->>;=>:",
":>>;:&oO  O<,>:>->;:-:;;>&#  O#o=........  ..*22;>--:*:;>;;=>>*;",
";;-;*#oo .o>3>:>;;;;;;->-#*  .o....... .   ooo<<;;;;:::-;>;>>->;",
"*&**OO..  O;1;>;;=;;>->;>&#. .o.       . . O#o<>;>->;-;&&%$$%$%$",
"##ooO    ..*2>-:===>:;-=;&%. .oOOO*=;>:>>:*.OO,;&*%$%####oooOooO",
"     . . .#o2<;;;::-;>=;>;O. ..*>>123111:&# #o;&%$#Ooo..... . . ",
" . .  . ..Oo>1;>-=;>;-:;-*#.  .>,21,->;>-*. ...........         ",
"..........OO;<>->:-=;=;>:O#. ..>2,>;;;-;;O. .  .  .  . .........",
"#O...... .#o*<->:;>:>->=>O*o  O>3>;->;>->#. .o#O## oOoOOoOooooo.",
"::;:;:;::  #o<,:;-::*;;;;&##  O>3-;>>->;;O. .&>21#o#=::;:::;::::",
"1<11<1,>*. #o;,;>;=;;->;&;&O  O><>>;->;>-#. .>1<> o*<12221222121",
">:;>;>>%*. #o*:>->>->*;&#&#O  O><>;&**&###. .1<>- O:11,,>,,,>,,,",
">;:;>-;&*. o#o:;**&*##*O*#o   .:;*;&....... $2>;; o:2>>:>;>;:-::",
">;;>->>&#. o#o%####ooo.        ;*...        $2>>- O:1>;:-:;:*-;-",
">;>;>-;*O. oOo . .            ..O.     .  . ;2>>; o;<->:>;>;:-::",
";>*=;;>&#. .O$O.        OOOOOOo;;;>>;;;=# .%,2>-= O-<>-:;:-:==;;",
";--=;>-%o. .-2221<>>;$.o&=>>,<<2221222<:% .=2<:>* o-,>:;>->;==;;",
";;>>-;;$O. .1<>;::>;:.OO=1322<,,<,<,<,<&# .;2>:;& O&<->;;:;->;>;",
":>-;>=*#.. .2:;:>>;:> #O:2<;>->:->:>:;-%o .;3>-># Oo;*$###%%&=;-",
"%$%$%#o... .1>>>->;>$ Oo:3>:>;=>>;-;>=>#o .-3>>;# # ..oooooooO##",
"#Oo...     .2->;>>;*$ Oo:3->;:>-;=;>;;:OO .;3->;O #.         ..o",
"       . OOo2>:->;>=$ .o:3;;>-;=;=;-;>;OO .-3>>-# $....... .    ",
"o%%%;:;-;;o 2>*:;>--%. o;3>;-;=;=;>=;->#o .;3;>>O #o.oO#O#O##...",
"%;,21211<>* 2>>-=;>-%. o;2,:;>;>*=;*:>-#. .;1;;>O O>21,;%#ooooo#",
"%>1<<,>>:>. 3;:>=;>:&o O=1<>-;*;==>;>--O. .;2>;;# O2-;,221222;.#",
"%2,>>->;>-* 3:>;>>->&O .O<2>>:;>->==;>&#. .;1;>;O O2;->>-;>;--.O",
"%1,:->;>->* 3:-:>;>-%#  $>3>>:;;=;==>-*o. O:1>>-# o2>>-;>>->;$.o",
"%2>;>;>>=>O 2>>>;;;>%O .O;3,>;>-;:->;>$o ..;1:;>O O<>;>>-;>;>$.o",
"%2>>;;::>-# 2,=:=>>:$#  O&1,>;=:-;:;;;$.  O;1;>O$ O<>:>;>-;>:#.o",
"%1,;>>;>-># <2-:>;;;$#  O#,2>->;>;>-;%#. .o=>=O....>>;>:;>;=>#..",
"%2,>:;>;>;O ,2=>-;;>&#  .O;,>;=%$#oO.... ..$.....o *Oo########..",
"%2>;>>->=># :1:=>>-;&#  .#o;;$#o.        .oOOoO####            .",
"%1,;-:>;>-# =2>:>-;>&O   Oo. .    . .  . .o##ooOoooOOo..........",
"%2,>>-:>;>O #3;:;;>-%#  .ooo.....OoO.#OoOoo##*==========*====*.O",
"%2>;;>->:&# o3>;-=;>&#   .%=====*=======;;;:>,><,<,<,,<,<,<,<=.#",
"%<,>>;>;>O  O3:;>;;-%#.  .=<,<,<,<<,<,<,<,122333333333331211;% O",
"%1,;>;>>-# .o3;>=:->%O.   =<<3333322332333332211,,,<,>,<,,<,=# O",
"%,,>;>-;;O .o2>>->;;$#.   =<<,<,<,<>,<>,<,,>>::;;>;>-;;>->;>&#..",
"O<-;>-*&*# .o1-;>->;&#.   %,2,;;-;;;>->>;;:>>>;=:->>:->;>>:;&# .",
"o,>>:;##O  oo,>-;>;-&#.   o<2,;;;>;:;:>-;:>>-:;:;;=-::;>->;>%#..",
"o===###O# ...::>-;;&%#.    ,21>>-;;;=;->;:->:=-;>-;>;=*;=:;;*# .",
"o.   #### ..O=&$%%$%##.   .>11;->;>-;>;==::->;>;;>-;=;;->;*-&# .",
"##Oo.    ..............    ;1,>;;>->=;-:=:;:=>-;=;;;->;=;;-=&# .",
"oOoooOo.  .o..            .=:&*&&**&>;>>-;=-;;=;;>->;;>-;;;:&$ .",
"o=>>>>;;%oO#..  .  .  . . .#o.. . . #*&=;======*============%O .",
"o><12122,>>;&$#O...........#oo...... O#O#########O####O#O#### ..",
"o>1>>;,1222,>>>>>>>:;;-==&%%O#ooo.O.. . . . . . .             ..",
"o>2>>>,>;>,222121212222<1<,>>>>>-O#o.........  . . . . . . ...oO",
"o>2>->==>:;=>->;>;>>->;>>><1311,-.oOooo... ..................oo#",
"o><>>>;>;;;:>-;>=*;>=;-;>->;>>>=% .OO>12:=OOo##Ooo.ooo.oo.ooO$#O",
"o><>->==:>->>:-=>=;=:->;>;>->>:%# .oo2>>2221,O#O,231222111>:=Oo#",
"o>-%$%$%$%%$%$%%$%$%$%%$%$%$%$&##. .o1,>,>,,,$#=2:>>;>->:>;>1: #",
"o;%...............................  O,>,,:$:-%o,>;>->>>->;>=>O #",
"o.                                  O.o.O%$%%$O2:::>>;:>::>;;O #",
"#O... .  .  .  . .  .  .  .  .  . . .##..     .##OO####OO###O$ #",
"##O#oooOOoOO.........................O#O#......O#              #",
"................................................................"
};
